# xmcd
#
# Track frame offsets:
#	150
#	2347
#	25325
#	39262
#	50325
#	64612
#	80612
#	93375
#	108900
#	123725
#	144537
#	163459
#	178950
#	199800
#	211712
#	230062
#	232529
#	247277
#	262104
#	269472
#	277839
#	288884
#	306482
#
# Disc length: 4383 seconds
#
# Revision: 1
# Processed by: cddbd v1.5.1PL0 Copyright (c) Steve Scherf et al.
# Submitted via: CDex 1.50Beta5
#
DISCID=4d111d17
DTITLE=Rat's and Star - Back To The Basic
DYEAR=1900
DGENRE=Pop
TTITLE0=Introduction 〜Back To The Basic〜
TTITLE1=サマー・ナイト・トレイン
TTITLE2=ランナウェイ
TTITLE3=トゥナイト
TTITLE4=街角トワイライト
TTITLE5=涙のスウィート・チェリー
TTITLE6=ハリケーン
TTITLE7=憧れのスレンダー・ガール
TTITLE8=胸騒ぎのクリスマス
TTITLE9=Miss You
TTITLE10=レディ・エキセントリック
TTITLE11=め組のひと
TTITLE12=Tシャツに口紅
TTITLE13=LOVERS NEVER SAY GOOD-BYE
TTITLE14=夢で逢えたら
TTITLE15=Introduction(街角トワイライト)
TTITLE16=涙のスウィート・チェリー
TTITLE17=夢見る16歳
TTITLE18=You'll Be Mine〜ランナウェイ〜
TTITLE19=街角トワイライト
TTITLE20=トゥナイト
TTITLE21=め組のひと
TTITLE22=Tシャツに口紅〜Chaser(SHAMA LAMA DING-DONG)
EXTD=
EXTT0=
EXTT1=
EXTT2=
EXTT3=
EXTT4=
EXTT5=
EXTT6=
EXTT7=
EXTT8=
EXTT9=
EXTT10=
EXTT11=
EXTT12=
EXTT13=
EXTT14=
EXTT15=
EXTT16=
EXTT17=
EXTT18=
EXTT19=
EXTT20=
EXTT21=
EXTT22=
PLAYORDER=
